<svg width="24" height="24" viewBox="0 0 24 24" fill="none" xmlns="http://www.w3.org/2000/svg">
<path d="M15.4239 15.5137L15.0966 15.1864L14.7451 15.4875C13.5535 16.5083 12.0064 17.1244 10.314 17.1244C6.55064 17.1244 3.5 14.0744 3.5 10.3122C3.5 6.55005 6.55064 3.5 10.314 3.5C14.0774 3.5 17.1281 6.55005 17.1281 10.3122C17.1281 12.0061 16.5103 13.5545 15.487 14.7464L15.1852 15.0981L15.5129 15.4257L20.4817 20.3934L20.4817 20.3934C20.5061 20.4178 20.5061 20.4572 20.4817 20.4817C20.4572 20.5061 20.4175 20.5061 20.3931 20.4817C20.3931 20.4817 20.393 20.4817 20.393 20.4817L15.4239 15.5137ZM10.314 16.9995C14.008 16.9995 17.0028 14.0056 17.0028 10.3122C17.0028 6.61882 14.008 3.62496 10.314 3.62496C6.62003 3.62496 3.62524 6.61882 3.62524 10.3122C3.62524 14.0056 6.62003 16.9995 10.314 16.9995Z" fill="black" stroke="black"/>
<path d="M20.4025 20.4894C20.4269 20.5058 20.4602 20.5032 20.4817 20.4817L20.4025 20.4894ZM20.4025 20.4894L20.4903 20.4041C20.5056 20.4282 20.5028 20.4606 20.4817 20.4817L20.4025 20.4894ZM20.481 20.3927L20.3923 20.4809L15.4239 15.5137L15.0966 15.1864L14.7451 15.4875C13.5535 16.5083 12.0064 17.1244 10.314 17.1244C6.55064 17.1244 3.5 14.0744 3.5 10.3122C3.5 6.55005 6.55064 3.5 10.314 3.5C14.0774 3.5 17.1281 6.55005 17.1281 10.3122C17.1281 12.0061 16.5103 13.5545 15.487 14.7464L15.1852 15.0981L15.5129 15.4257L20.4808 20.3925L20.481 20.3927ZM20.4828 20.3945L20.3939 20.4825C20.3937 20.4823 20.3935 20.4821 20.3933 20.4819L20.4818 20.3935C20.482 20.3937 20.4822 20.3939 20.4824 20.3941C20.4825 20.3942 20.4826 20.3943 20.4828 20.3945ZM10.314 16.9995C14.008 16.9995 17.0028 14.0056 17.0028 10.3122C17.0028 6.61883 14.008 3.62496 10.314 3.62496C6.62003 3.62496 3.62524 6.61883 3.62524 10.3122C3.62524 14.0056 6.62003 16.9995 10.314 16.9995Z" fill="black" stroke="black"/>
</svg>
