<svg width="24" height="24" viewBox="0 0 24 24" fill="none" xmlns="http://www.w3.org/2000/svg">
<path fill-rule="evenodd" clip-rule="evenodd" d="M3.04469 3.29339C3.12576 3.11474 3.30382 3 3.50001 3H20.5C20.6962 3 20.8743 3.11474 20.9553 3.29339C21.0364 3.47205 21.0055 3.68161 20.8763 3.82925L14 11.6879V17.5C14 17.6326 13.9473 17.7598 13.8536 17.8536L10.8536 20.8536C10.7106 20.9966 10.4955 21.0393 10.3087 20.9619C10.1218 20.8846 10 20.7022 10 20.5V11.6879L3.12372 3.82925C2.99453 3.68161 2.96362 3.47205 3.04469 3.29339ZM4.60189 4L10.8763 11.1707C10.956 11.2619 11 11.3789 11 11.5V19.2929L13 17.2929V11.5C13 11.3789 13.044 11.2619 13.1237 11.1707L19.3981 4H4.60189Z" fill="black"/>
</svg>
